# xmcd
#
# Track frame offsets:
#	150
#	22803
#	36904
#	52131
#	63832
#	72083
#	91884
#	109585
#	116786
#	131485
#	154660
#	180611
#
# Disc length: 2454 seconds
#
# Revision: 1
# Processed by: cddbd v1.5.1PL0 Copyright (c) Steve Scherf et al.
# Submitted via: audiograbber 1.82.01
#
DISCID=9a09940c
DTITLE=Captain Beefheart and The Magic Band - Bat Chain Puller - Private Release
DYEAR=1900
DGENRE=
TTITLE0=Captain Beefheart and The Magic Band - Bat Chain Puller
TTITLE1=Captain Beefheart and The Magic Band - Seam Crooked Sam
TTITLE2=Captain Beefheart and The Magic Band - Harry Irene
TTITLE3=Captain Beefheart and The Magic Band - 81 Poop Hatch
TTITLE4=Captain Beefheart and The Magic Band - Flavor Bud Living
TTITLE5=Captain Beefheart and The Magic Band - Brickbats
TTITLE6=Captain Beefheart and The Magic Band - The Floppy Boot Stomp
TTITLE7=Captain Beefheart and The Magic Band - A Carrot Is As Close As A Rabbit G
TTITLE7=ets To A Diamond
TTITLE8=Captain Beefheart and The Magic Band - Carson City (Owed T'Alex)
TTITLE9=Captain Beefheart and The Magic Band - Odd Jobs
TTITLE10=Captain Beefheart and The Magic Band - The Thousandth And Tenth Day Of T
TTITLE10=he Human Totem Pole
TTITLE11=Captain Beefheart and The Magic Band - Apes-Ma
EXTD=
EXTT0=
EXTT1=
EXTT2=
EXTT3=
EXTT4=
EXTT5=
EXTT6=
EXTT7=
EXTT8=
EXTT9=
EXTT10=
EXTT11=
PLAYORDER=
